<svg id="svg" version="1.1" xmlns="http://www.w3.org/2000/svg" xmlns:xlink="http://www.w3.org/1999/xlink" width="400" height="408.44250363901017" viewBox="0, 0, 400,408.44250363901017"><g id="svgg"><path id="path0" d="M276.596 83.229 C 276.202 83.480,276.125 86.669,276.498 87.239 L 276.774 87.660 281.281 87.660 L 285.787 87.660 285.787 99.111 C 285.787 112.708,285.516 111.319,288.168 111.319 C 290.840 111.319,290.553 112.772,290.553 99.223 L 290.553 87.662 288.964 85.405 L 287.374 83.149 282.113 83.108 C 278.985 83.083,276.748 83.132,276.596 83.229 M292.637 83.872 C 292.956 84.317,293.696 85.351,294.280 86.170 L 295.342 87.660 297.449 87.660 C 300.088 87.660,300.085 87.662,300.085 85.251 C 300.085 82.927,300.353 83.064,295.803 83.064 L 292.056 83.064 292.637 83.872 M304.755 83.287 C 304.708 83.409,304.691 84.424,304.718 85.542 L 304.766 87.574 307.106 87.622 L 309.447 87.669 309.447 85.367 L 309.447 83.064 307.144 83.064 C 305.403 83.064,304.819 83.118,304.755 83.287 M304.765 93.319 C 304.714 93.530,304.693 97.647,304.719 102.468 L 304.766 111.234 307.106 111.281 L 309.447 111.329 309.447 102.132 L 309.447 92.936 307.152 92.936 C 304.914 92.936,304.855 92.946,304.765 93.319 " stroke="none" fill="#fbfafa" fill-rule="evenodd"></path><path id="path1" d="M76.511 71.779 C 74.401 72.278,72.358 74.398,71.759 76.712 C 71.462 77.858,71.332 175.489,71.628 175.489 C 71.774 175.489,71.993 175.208,73.215 173.447 C 73.638 172.838,74.622 171.421,75.403 170.298 C 76.184 169.174,77.242 167.643,77.754 166.894 C 79.225 164.745,80.544 162.841,80.837 162.445 C 80.985 162.245,81.203 161.939,81.321 161.764 C 81.779 161.087,83.226 159.055,83.373 158.883 C 83.459 158.783,83.626 158.520,83.745 158.298 C 83.864 158.076,84.031 157.812,84.116 157.713 C 84.263 157.541,85.711 155.509,86.168 154.831 C 86.286 154.657,86.504 154.350,86.652 154.151 C 86.945 153.755,88.265 151.851,89.735 149.702 C 90.248 148.953,91.306 147.421,92.087 146.298 C 93.994 143.554,94.971 142.146,95.393 141.532 C 95.587 141.251,95.783 140.983,95.830 140.936 C 95.931 140.834,96.697 139.732,97.722 138.213 C 98.132 137.604,98.507 137.068,98.555 137.021 C 98.603 136.974,98.948 136.478,99.321 135.918 C 99.695 135.358,100.061 134.822,100.136 134.726 C 100.210 134.631,100.647 134.017,101.106 133.362 C 101.566 132.706,102.011 132.089,102.097 131.989 C 102.182 131.890,102.350 131.622,102.471 131.394 C 102.591 131.165,102.740 130.940,102.802 130.894 C 102.864 130.847,103.414 130.081,104.025 129.191 C 104.636 128.302,105.774 126.655,106.555 125.532 C 107.336 124.409,108.320 122.991,108.742 122.383 C 109.164 121.774,109.668 121.049,109.861 120.771 C 110.055 120.492,110.309 120.161,110.426 120.035 C 110.543 119.909,110.638 119.745,110.638 119.671 C 110.638 119.558,111.219 118.742,111.805 118.032 C 111.887 117.932,112.051 117.669,112.170 117.447 C 112.289 117.225,112.456 116.961,112.542 116.862 C 112.674 116.707,114.008 114.839,114.555 114.043 C 114.651 113.902,115.003 113.404,115.337 112.936 C 115.670 112.468,116.221 111.664,116.561 111.149 C 116.902 110.634,117.221 110.174,117.271 110.128 C 117.321 110.081,117.520 109.813,117.713 109.532 C 117.906 109.251,118.437 108.485,118.893 107.830 C 121.597 103.938,124.113 100.303,125.075 98.894 C 125.682 98.004,126.302 97.113,126.451 96.913 C 126.601 96.714,126.820 96.407,126.938 96.232 C 127.056 96.058,127.534 95.379,128.000 94.723 C 128.466 94.068,128.944 93.389,129.062 93.214 C 129.180 93.040,129.399 92.733,129.548 92.533 C 129.698 92.334,130.419 91.289,131.151 90.213 C 132.810 87.775,133.169 87.256,133.277 87.149 C 133.323 87.102,133.520 86.834,133.713 86.553 C 134.116 85.968,134.999 84.695,137.019 81.787 C 137.800 80.664,138.937 79.017,139.545 78.128 C 141.048 75.932,141.347 75.504,141.447 75.404 C 141.494 75.357,141.837 74.860,142.210 74.298 C 142.584 73.736,142.928 73.238,142.976 73.191 C 143.075 73.095,143.701 72.195,143.893 71.872 C 144.018 71.663,77.394 71.571,76.511 71.779 M259.234 152.227 C 259.234 219.834,259.271 232.921,259.467 233.569 C 259.742 234.484,260.586 235.468,261.532 235.975 C 262.209 236.339,262.284 236.341,276.936 236.426 L 291.660 236.511 292.426 237.026 C 293.476 237.732,294.247 238.923,294.379 240.044 C 294.437 240.535,294.462 255.298,294.434 272.851 C 294.377 308.463,294.492 305.253,293.226 306.555 C 292.008 307.807,292.956 307.737,277.155 307.741 C 261.225 307.745,261.914 307.692,260.533 309.033 C 259.232 310.297,259.325 309.210,259.273 323.791 L 259.226 336.858 291.187 336.812 L 323.149 336.766 324.214 336.295 C 326.303 335.372,327.399 334.168,328.187 331.931 C 328.707 330.451,328.694 77.864,328.173 76.350 C 327.510 74.421,326.370 73.097,324.622 72.225 L 323.660 71.745 291.447 71.700 L 259.234 71.656 259.234 152.227 M289.039 85.362 L 290.716 87.745 290.720 99.169 C 290.724 112.826,290.989 111.489,288.281 111.489 C 286.984 111.489,286.448 111.422,286.166 111.224 L 285.787 110.959 285.787 99.395 L 285.787 87.830 281.362 87.830 C 275.908 87.830,276.255 88.000,276.255 85.333 C 276.255 82.669,275.743 82.880,282.093 82.934 L 287.363 82.979 289.039 85.362 M299.774 83.175 C 300.039 83.415,300.085 83.731,300.085 85.303 C 300.085 87.822,300.077 87.830,297.389 87.830 L 295.374 87.830 293.757 85.574 C 292.869 84.334,292.086 83.223,292.018 83.106 C 291.805 82.739,299.366 82.806,299.774 83.175 M309.532 85.362 L 309.532 87.745 307.149 87.745 L 304.766 87.745 304.718 85.541 C 304.655 82.624,304.417 82.875,307.188 82.931 L 309.532 82.979 309.532 85.362 M309.532 102.213 L 309.532 111.404 307.149 111.404 L 304.766 111.404 304.722 102.383 C 304.697 97.421,304.715 93.264,304.761 93.144 C 304.824 92.979,305.407 92.938,307.188 92.974 L 309.532 93.021 309.532 102.213 M181.872 139.811 C 181.091 140.152,180.408 140.796,179.660 141.894 C 179.286 142.444,178.903 142.983,178.809 143.092 C 178.715 143.202,178.294 143.800,177.872 144.423 C 177.451 145.045,176.870 145.875,176.581 146.267 C 176.292 146.658,175.455 147.860,174.722 148.936 C 173.293 151.032,173.003 151.450,171.063 154.213 C 170.372 155.196,169.357 156.651,168.807 157.447 C 168.257 158.243,167.542 159.277,167.218 159.745 C 166.893 160.213,166.553 160.711,166.461 160.851 C 166.244 161.183,164.652 163.438,164.476 163.662 C 164.401 163.758,164.034 164.294,163.660 164.854 C 163.285 165.414,162.918 165.949,162.843 166.043 C 162.769 166.136,162.332 166.749,161.872 167.404 C 161.413 168.060,160.967 168.677,160.882 168.777 C 160.797 168.876,160.630 169.139,160.511 169.362 C 160.392 169.584,160.225 169.847,160.139 169.947 C 160.003 170.106,158.599 172.074,158.128 172.766 C 158.032 172.906,157.591 173.534,157.147 174.161 C 156.703 174.787,155.613 176.353,154.723 177.640 C 153.834 178.926,152.679 180.597,152.158 181.351 C 151.181 182.764,149.422 185.287,148.058 187.234 C 147.631 187.843,146.946 188.838,146.535 189.447 C 146.124 190.055,145.711 190.643,145.617 190.752 C 145.523 190.861,145.102 191.457,144.681 192.076 C 143.772 193.410,142.362 195.415,142.152 195.670 C 142.070 195.770,141.906 196.033,141.787 196.255 C 141.668 196.478,141.501 196.741,141.416 196.840 C 141.279 196.999,139.875 198.967,139.404 199.660 C 139.309 199.800,138.849 200.451,138.383 201.106 C 137.917 201.762,137.439 202.441,137.321 202.616 C 137.203 202.791,136.881 203.250,136.606 203.637 C 136.330 204.024,135.711 204.915,135.230 205.617 C 134.456 206.746,131.664 210.776,129.276 214.213 C 128.820 214.868,128.289 215.634,128.096 215.915 C 127.903 216.196,127.699 216.464,127.643 216.511 C 127.586 216.557,127.442 216.782,127.322 217.011 C 127.201 217.239,127.033 217.507,126.948 217.606 C 126.815 217.761,125.481 219.629,124.935 220.426 C 124.838 220.566,124.487 221.064,124.154 221.532 C 123.820 222.000,123.205 222.881,122.785 223.489 C 122.366 224.098,121.757 224.979,121.432 225.447 C 121.107 225.915,120.766 226.413,120.674 226.553 C 120.356 227.039,118.824 229.192,118.662 229.381 C 117.045 231.259,117.670 234.518,119.915 235.916 L 120.596 236.340 152.766 236.340 L 184.936 236.340 185.617 235.924 C 186.542 235.359,187.172 234.690,187.485 233.941 C 187.719 233.381,187.742 228.421,187.703 187.653 L 187.660 141.992 186.963 141.166 C 185.731 139.705,183.484 139.107,181.872 139.811 M71.491 319.191 C 71.494 332.886,71.483 332.812,73.743 334.904 C 76.029 337.020,70.630 336.844,133.149 336.848 L 187.745 336.851 187.745 323.940 C 187.745 309.407,187.814 310.229,186.469 308.916 C 185.148 307.627,191.019 307.745,127.823 307.745 L 71.489 307.745 71.491 319.191 " stroke="none" fill="#d4243c" fill-rule="evenodd"></path><path id="path2" d="M278.723 83.014 C 283.437 83.134,287.450 83.138,287.378 83.021 C 287.335 82.951,284.948 82.910,282.075 82.930 C 279.202 82.950,277.694 82.988,278.723 83.014 M293.820 83.021 C 294.822 83.051,296.507 83.051,297.565 83.021 C 298.623 82.991,297.804 82.966,295.745 82.966 C 293.685 82.966,292.819 82.990,293.820 83.021 M304.795 83.017 C 304.750 83.089,305.776 83.126,307.075 83.097 L 309.437 83.046 309.492 85.225 L 309.547 87.404 309.539 85.191 L 309.532 82.979 307.204 82.931 C 305.924 82.905,304.840 82.944,304.795 83.017 M309.526 102.128 C 309.526 107.136,309.548 109.185,309.574 106.681 C 309.601 104.177,309.601 100.079,309.574 97.574 C 309.548 95.070,309.526 97.119,309.526 102.128 M304.830 111.367 C 304.903 111.440,305.991 111.478,307.248 111.451 L 309.532 111.403 307.114 111.319 C 305.785 111.272,304.757 111.294,304.830 111.367 M287.453 111.445 C 287.947 111.479,288.713 111.479,289.155 111.444 C 289.596 111.409,289.191 111.381,288.255 111.381 C 287.319 111.382,286.958 111.410,287.453 111.445 " stroke="none" fill="#ec949c" fill-rule="evenodd"></path><path id="path3" d="M290.634 99.149 C 290.634 105.515,290.655 108.094,290.681 104.881 C 290.707 101.668,290.707 96.459,290.681 93.307 C 290.655 90.154,290.634 92.783,290.634 99.149 " stroke="none" fill="#e4606f" fill-rule="evenodd"></path><path id="path4" d="M279.181 87.787 C 280.370 87.816,282.361 87.816,283.607 87.787 C 284.853 87.758,283.881 87.734,281.447 87.734 C 279.013 87.734,277.993 87.757,279.181 87.787 M296.383 87.785 C 296.921 87.819,297.802 87.819,298.340 87.785 C 298.879 87.752,298.438 87.724,297.362 87.724 C 296.285 87.724,295.845 87.752,296.383 87.785 M306.092 87.786 C 306.728 87.819,307.724 87.819,308.305 87.785 C 308.886 87.752,308.366 87.725,307.149 87.726 C 305.932 87.726,305.456 87.753,306.092 87.786 " stroke="none" fill="#ec848c" fill-rule="evenodd"></path></g></svg>